PathFileType	4	(X/Y/Z)	D:/ViconDB/Teaching_2017/Workshops/171025_A1_Demo01/Demo/171025_Guy_ROM_body_01_unlab.trc
DataRate	CameraRate	NumFrames	NumMarkers	Units	OrigDataRate	OrigDataStartFrame	OrigNumFrames
120.000000	120.000000	4	1	mm	120.000000	31	120
Frame#	Time	Unlabeled_Markers			
		X0	Y0	Z0	
31	0.258333				163.505936	83.685890	96.354401	-34.365211	1843.090210	-22.453554	-178.358978	79.135437	83.034050	129.175110	68.246468	-191.295258	126.811737	85.678406	51.732632	-204.347717	76.814774	27.219082	237.674210	1221.058594	-67.577126	-124.386917	76.041412	43.056458	-116.903969	75.917351	-194.142075	143.330383	1500.853516	-113.519760	179.506500	124.487785	-134.892471	208.014877	79.469955	42.603439	-6.823280	1552.946777	-103.067841	-179.050034	127.546478	-146.320114	-310.433777	867.232361	44.290005	196.120697	332.892761	-93.375031	263.261780	927.031921	38.272869	263.253265	1168.520752	-7.999215	-169.002457	1501.052979	-112.233856	66.331787	1733.642944	-46.649345	-240.818512	1207.969238	-108.090042	-199.006439	413.030518	-91.880341	238.324066	1356.221558	-34.246555	-89.709221	1716.446167	-79.276924	-304.769867	1049.240601	-13.317639	118.670677	1171.496826	-96.067886	-288.964630	920.566223	-11.575613	-294.990387	1168.256470	-53.814892	-185.816513	565.694519	-18.936550	-100.735329	1789.617432	49.747829	183.369568	662.634399	-14.998676	275.720825	873.054260	96.395592	256.178162	888.550110	122.285561	175.568436	549.334717	-13.054856	-0.296565	1374.334229	-131.621078	-116.437607	1157.037598	-112.943787	-258.565033	1362.350952	-53.553978	-10.401871	1484.609131	72.920395	-300.046722	873.719238	83.956055	-161.279907	650.298889	44.233894	-156.378021	1508.896118	5.732436	260.352539	1055.099976	53.865002	-201.539886	1011.548523	-60.906185	26.409443	1794.841309	69.382782	185.227570	981.723572	-18.351017	-136.322723	753.182007	67.951729	-141.463760	1093.368164	90.071129	113.482208	629.696289	50.236294	127.089966	1507.032471	26.179226	-4.368184	1348.256592	116.306793	-263.109436	945.966675	62.503620	209.151566	934.121887	102.695770	118.522057	1090.136963	90.175316																																																																																																																																																																																																																																																																																																																																																																																																																																																																																																																																																																																																															
32	0.266667				163.525284	83.690292	96.402756	-34.354843	1843.138550	-22.157015	-178.369720	79.202194	83.056267	129.181656	68.301445	-191.286270	126.798584	85.711357	51.743675	-204.362122	76.875290	27.224525	237.662186	1221.092529	-67.406448	-124.403809	76.108742	43.034279	-116.909012	75.965340	-194.106750	143.341843	1500.886597	-113.355385	179.461624	124.495110	-134.919983	208.001419	79.477814	42.599407	-6.777250	1552.983032	-102.861717	-179.062576	127.583931	-146.317215	-310.398743	867.287109	44.536095	196.073914	332.883423	-93.385490	263.212708	927.035278	38.395988	263.233185	1168.518677	-7.859403	-168.956604	1501.094238	-111.998039	66.376236	1733.818848	-46.312210	-240.766907	1207.983643	-107.881683	-198.647919	412.968353	-92.068039	238.298401	1356.234375	-34.087288	-89.666084	1716.498535	-79.060631	-304.747192	1049.307251	-13.075451	118.725502	1171.508301	-95.926605	-288.891815	920.578003	-11.294866	-294.953033	1168.307495	-53.620281	-185.785248	565.764343	-18.874794	-100.733109	1789.694092	50.030304	183.396332	662.642517	-15.010919	275.664124	873.034363	96.488609	256.150299	888.587158	122.403114	175.558975	549.333191	-13.084056	-0.291172	1374.364746	-131.424820	-116.413460	1157.042480	-112.738693	-258.348755	1362.744507	-53.250996	-10.641926	1484.392944	73.002151	-300.131073	873.891479	84.305969	-161.274857	650.346802	44.289276	-156.339111	1508.998779	5.952476	260.319397	1055.099243	54.003510	-201.476425	1011.605713	-60.848927	26.392651	1794.856812	69.634743	185.289841	981.706543	-18.277367	-136.291031	753.185364	68.016197	-141.462372	1093.467041	90.190651	113.509827	629.717407	50.245064	127.242371	1507.216309	26.452568	-4.347705	1348.317383	116.498917	-263.132141	946.075745	62.736397	209.103806	934.170349	102.852570	118.483231	1090.154053	90.217598																																																																																																																																																																																																																																																																																																																																																																																																																																																																																																																																																																																																															
33	0.275000				163.485077	83.654411	96.390938	-34.371639	1843.114624	-21.899792	-178.428650	79.145622	83.039589	129.167618	68.242203	-191.282349	126.773170	85.668655	51.748806	-204.387772	76.859352	27.238905	237.622681	1221.038208	-67.304718	-124.415710	76.067154	43.028809	-116.899788	75.936516	-194.143234	143.327896	1500.873657	-113.230957	179.410263	124.472954	-134.901077	207.966049	79.419731	42.593403	-6.735525	1552.942261	-102.692383	-179.036118	127.542656	-146.276993	-310.348236	867.236877	44.783352	196.073120	332.859222	-93.413994	263.160461	927.005859	38.512733	263.195190	1168.472778	-7.721968	-168.936554	1501.046509	-111.815628	66.383698	1733.534912	-46.443455	-240.728516	1207.910278	-107.686775	-198.557220	412.877472	-92.098778	238.264313	1356.186035	-33.965038	-89.678101	1716.450562	-78.824188	-304.691010	1049.286377	-12.834448	118.747787	1171.466797	-95.818489	-288.840179	920.517090	-11.055699	-294.850800	1168.180786	-53.390469	-185.745056	565.709839	-18.820107	-100.744331	1789.670898	50.249352	183.415314	662.615295	-15.043784	275.600067	872.966675	96.543983	256.210510	888.570068	122.585579	175.582001	549.288574	-13.098631	-0.267768	1374.319580	-131.290787	-116.379387	1157.014771	-112.653679	-258.567139	1362.398804	-53.213806	-10.401615	1484.648193	73.299652	-299.910828	873.821716	84.458916	-161.211639	650.328857	44.353958	-156.353271	1508.965088	6.114126	260.215759	1055.041138	54.101856	-201.413269	1011.507324	-60.767876	26.366850	1794.813354	69.859245	185.331665	981.674316	-18.219507	-136.198074	753.188904	68.097755	-141.417465	1093.395996	90.283920	113.542191	629.731567	50.244041	126.640854	1506.594604	26.282324	-4.325263	1348.282715	116.651505	-263.102203	946.076355	62.911900	209.057098	934.192688	102.971786	118.508499	1090.173096	90.289658																																																																																																																																																																																																																																																																																																																																																																																																																																																																																																																																																																																																															
34	0.283333				163.463226	83.548981	96.379684	-34.357796	1843.036255	-21.671717	-178.422119	79.054390	83.030571	129.144470	68.195366	-191.299103	126.781555	85.608376	51.780361	-204.407761	76.790810	27.235348	237.610046	1220.964600	-67.204987	-124.422195	75.996178	43.025414	-116.365395	76.018211	-194.499847	143.359314	1500.843994	-113.126869	179.437958	124.431717	-134.901642	207.952713	79.332779	42.595512	-6.723808	1552.877686	-102.537331	-179.006866	127.439194	-146.267776	-310.234009	867.110046	44.965805	196.053604	332.759888	-93.386177	263.108032	926.921082	38.616245	263.190460	1168.395020	-7.560178	-168.914627	1500.957642	-111.673225	66.298416	1733.565430	-46.057446	-240.692657	1207.821411	-107.535652	-198.864563	412.906616	-91.810791	238.258148	1356.117920	-33.814808	-89.652863	1716.378052	-78.631805	-304.613129	1049.180908	-12.612270	118.777084	1171.432861	-95.761711	-288.755127	920.406189	-10.849209	-294.797058	1168.089233	-53.201015	-185.692841	565.630371	-18.799500	-100.751060	1789.583130	50.463451	183.443787	662.527954	-15.032116	275.543274	872.868530	96.635735	256.156647	888.501465	122.694054	175.605057	549.220947	-13.109800	-0.243955	1374.268677	-131.184570	-116.330521	1156.940308	-112.591118	-258.314484	1362.511108	-52.905174	-10.788263	1484.163940	73.260162	-299.867737	873.788269	84.693222	-161.134674	650.277893	44.363850	-156.316223	1508.868408	6.274055	260.232849	1054.963867	54.233170	-200.832764	1011.534424	-59.493687	26.388971	1794.739014	70.076408	185.335175	981.600159	-18.158022	-136.147751	753.098328	68.139381	-141.332031	1093.321655	90.399178	113.640556	629.689331	50.305126	126.558029	1506.500610	26.373100	-4.304698	1348.194092	116.803642	-263.049072	945.980408	63.073215	209.049866	934.174194	103.121552	118.597916	1090.152588	90.400948																																																																																																																																																																																																																																																																																																																																																																																																																																																																																																																																																																																																															
